<svg id="visual" viewBox="0 0 960 540" width="960" height="540" xmlns="http://www.w3.org/2000/svg" xmlns:xlink="http://www.w3.org/1999/xlink" version="1.1"><rect x="0" y="0" width="960" height="540" fill="#fff"></rect><path d="M0 141L26.7 133.8C53.3 126.7 106.7 112.3 160 110C213.3 107.7 266.7 117.3 320 127.3C373.3 137.3 426.7 147.7 480 152.3C533.3 157 586.7 156 640 140.7C693.3 125.3 746.7 95.7 800 83.3C853.3 71 906.7 76 933.3 78.5L960 81L960 0L933.3 0C906.7 0 853.3 0 800 0C746.7 0 693.3 0 640 0C586.7 0 533.3 0 480 0C426.7 0 373.3 0 320 0C266.7 0 213.3 0 160 0C106.7 0 53.3 0 26.7 0L0 0Z" fill="#000069" stroke-linecap="round" stroke-linejoin="miter"></path></svg>