<svg id="visual" viewBox="0 0 900 600" width="900" height="600" xmlns="http://www.w3.org/2000/svg" xmlns:xlink="http://www.w3.org/1999/xlink" version="1.1"><rect x="0" y="0" width="900" height="600" fill="#000024"></rect><path d="M289 600L290 600L290 540L438 540L438 480L317 480L317 420L481 420L481 360L377 360L377 300L342 300L342 240L482 240L482 180L374 180L374 120L474 120L474 60L451 60L451 0L900 0L900 60L900 60L900 120L900 120L900 180L900 180L900 240L900 240L900 300L900 300L900 360L900 360L900 420L900 420L900 480L900 480L900 540L900 540L900 600L900 600Z" fill="#a3a3a3"></path><path d="M424 600L540 600L540 540L544 540L544 480L517 480L517 420L579 420L579 360L420 360L420 300L592 300L592 240L598 240L598 180L550 180L550 120L453 120L453 60L540 60L540 0L900 0L900 60L900 60L900 120L900 120L900 180L900 180L900 240L900 240L900 300L900 300L900 360L900 360L900 420L900 420L900 480L900 480L900 540L900 540L900 600L900 600Z" fill="#bababa"></path><path d="M570 600L559 600L559 540L613 540L613 480L594 480L594 420L717 420L717 360L599 360L599 300L687 300L687 240L589 240L589 180L599 180L599 120L554 120L554 60L701 60L701 0L900 0L900 60L900 60L900 120L900 120L900 180L900 180L900 240L900 240L900 300L900 300L900 360L900 360L900 420L900 420L900 480L900 480L900 540L900 540L900 600L900 600Z" fill="#cbcbcb"></path><path d="M717 600L761 600L761 540L708 540L708 480L782 480L782 420L705 420L705 360L799 360L799 300L802 300L802 240L789 240L789 180L714 180L714 120L720 120L720 60L809 60L809 0L900 0L900 60L900 60L900 120L900 120L900 180L900 180L900 240L900 240L900 300L900 300L900 360L900 360L900 420L900 420L900 480L900 480L900 540L900 540L900 600L900 600Z" fill="#d7d7d7"></path></svg>