<svg id="visual" viewBox="0 0 960 540" width="960" height="540" xmlns="http://www.w3.org/2000/svg" xmlns:xlink="http://www.w3.org/1999/xlink" version="1.1"><rect x="0" y="0" width="960" height="540" fill="#fff"></rect><path d="M0 280L22.8 281.8C45.7 283.7 91.3 287.3 137 298.2C182.7 309 228.3 327 274 330.5C319.7 334 365.3 323 411.2 308.8C457 294.7 503 277.3 548.8 270.5C594.7 263.7 640.3 267.3 686 274.2C731.7 281 777.3 291 823 296.3C868.7 301.7 914.3 302.3 937.2 302.7L960 303L960 0L937.2 0C914.3 0 868.7 0 823 0C777.3 0 731.7 0 686 0C640.3 0 594.7 0 548.8 0C503 0 457 0 411.2 0C365.3 0 319.7 0 274 0C228.3 0 182.7 0 137 0C91.3 0 45.7 0 22.8 0L0 0Z" fill="#c52525"></path><path d="M0 282L22.8 275.8C45.7 269.7 91.3 257.3 137 242.5C182.7 227.7 228.3 210.3 274 216C319.7 221.7 365.3 250.3 411.2 257C457 263.7 503 248.3 548.8 244.2C594.7 240 640.3 247 686 237.3C731.7 227.7 777.3 201.3 823 202C868.7 202.7 914.3 230.3 937.2 244.2L960 258L960 0L937.2 0C914.3 0 868.7 0 823 0C777.3 0 731.7 0 686 0C640.3 0 594.7 0 548.8 0C503 0 457 0 411.2 0C365.3 0 319.7 0 274 0C228.3 0 182.7 0 137 0C91.3 0 45.7 0 22.8 0L0 0Z" fill="#b00040"></path><path d="M0 189L22.8 186C45.7 183 91.3 177 137 178.7C182.7 180.3 228.3 189.7 274 191.3C319.7 193 365.3 187 411.2 175.5C457 164 503 147 548.8 143C594.7 139 640.3 148 686 147.3C731.7 146.7 777.3 136.3 823 142C868.7 147.7 914.3 169.3 937.2 180.2L960 191L960 0L937.2 0C914.3 0 868.7 0 823 0C777.3 0 731.7 0 686 0C640.3 0 594.7 0 548.8 0C503 0 457 0 411.2 0C365.3 0 319.7 0 274 0C228.3 0 182.7 0 137 0C91.3 0 45.7 0 22.8 0L0 0Z" fill="#910052"></path><path d="M0 158L22.8 157C45.7 156 91.3 154 137 142.3C182.7 130.7 228.3 109.3 274 102C319.7 94.7 365.3 101.3 411.2 100.3C457 99.3 503 90.7 548.8 95.3C594.7 100 640.3 118 686 129C731.7 140 777.3 144 823 142.5C868.7 141 914.3 134 937.2 130.5L960 127L960 0L937.2 0C914.3 0 868.7 0 823 0C777.3 0 731.7 0 686 0C640.3 0 594.7 0 548.8 0C503 0 457 0 411.2 0C365.3 0 319.7 0 274 0C228.3 0 182.7 0 137 0C91.3 0 45.7 0 22.8 0L0 0Z" fill="#65005f"></path><path d="M0 59L22.8 65.8C45.7 72.7 91.3 86.3 137 83.2C182.7 80 228.3 60 274 55.5C319.7 51 365.3 62 411.2 72.2C457 82.3 503 91.7 548.8 92.7C594.7 93.7 640.3 86.3 686 75.5C731.7 64.7 777.3 50.3 823 49.3C868.7 48.3 914.3 60.7 937.2 66.8L960 73L960 0L937.2 0C914.3 0 868.7 0 823 0C777.3 0 731.7 0 686 0C640.3 0 594.7 0 548.8 0C503 0 457 0 411.2 0C365.3 0 319.7 0 274 0C228.3 0 182.7 0 137 0C91.3 0 45.7 0 22.8 0L0 0Z" fill="#000069"></path></svg>