<svg id="visual" viewBox="0 0 960 540" width="960" height="540" xmlns="http://www.w3.org/2000/svg" xmlns:xlink="http://www.w3.org/1999/xlink" version="1.1"><rect x="0" y="0" width="960" height="540" fill="#ffffff"></rect><path d="M0 190L32 196.7C64 203.3 128 216.7 192 231.7C256 246.7 320 263.3 384 268.3C448 273.3 512 266.7 576 241.8C640 217 704 174 768 159.2C832 144.3 896 157.7 928 164.3L960 171L960 0L928 0C896 0 832 0 768 0C704 0 640 0 576 0C512 0 448 0 384 0C320 0 256 0 192 0C128 0 64 0 32 0L0 0Z" fill="#000069" stroke-linecap="round" stroke-linejoin="miter"></path></svg>