<svg id="visual" viewBox="0 0 960 300" width="960" height="300" xmlns="http://www.w3.org/2000/svg" xmlns:xlink="http://www.w3.org/1999/xlink" version="1.1"><rect x="0" y="0" width="960" height="300" fill="#fff"></rect><path d="M0 220L22.8 214.8C45.7 209.7 91.3 199.3 137 193.3C182.7 187.3 228.3 185.7 274 184.5C319.7 183.3 365.3 182.7 411.2 190C457 197.3 503 212.7 548.8 219.3C594.7 226 640.3 224 686 223.2C731.7 222.3 777.3 222.7 823 216.5C868.7 210.3 914.3 197.7 937.2 191.3L960 185L960 301L937.2 301C914.3 301 868.7 301 823 301C777.3 301 731.7 301 686 301C640.3 301 594.7 301 548.8 301C503 301 457 301 411.2 301C365.3 301 319.7 301 274 301C228.3 301 182.7 301 137 301C91.3 301 45.7 301 22.8 301L0 301Z" fill="#000069" stroke-linecap="round" stroke-linejoin="miter"></path></svg>