<?xml version="1.0" standalone="no"?>
<svg viewBox="0 0 200 200" xmlns="http://www.w3.org/2000/svg">
  <path fill="#000069" d="M34.7,-57.7C47.6,-52.7,62.6,-48.7,73,-39.3C83.4,-29.8,89.3,-14.9,88.4,-0.5C87.5,13.9,79.9,27.8,70.6,39.2C61.3,50.6,50.4,59.5,38.4,66.8C26.3,74.2,13.2,79.9,-1.5,82.5C-16.1,85,-32.1,84.3,-45.3,77.6C-58.6,70.9,-68.9,58.3,-74,44.4C-79.2,30.5,-79.1,15.2,-79.9,-0.4C-80.6,-16.1,-82.2,-32.3,-75,-42.6C-67.9,-53,-51.9,-57.5,-37.9,-61.9C-23.9,-66.3,-12,-70.5,-0.5,-69.6C10.9,-68.7,21.8,-62.7,34.7,-57.7Z" transform="translate(100 100)" />
</svg>
