<svg id="visual" viewBox="0 0 600 900" width="600" height="900" xmlns="http://www.w3.org/2000/svg" xmlns:xlink="http://www.w3.org/1999/xlink" version="1.1"><g stroke-width="1" stroke-linejoin="bevel"><path d="M342.3 475L353.3 536.3L387 513.3Z" fill="#e3e3e3" stroke="#e3e3e3"></path><path d="M353.3 536.3L392 544.6L387 513.3Z" fill="#d6d6d6" stroke="#d6d6d6"></path><path d="M342.3 475L289.7 544.3L353.3 536.3Z" fill="#d1d1d1" stroke="#d1d1d1"></path><path d="M353.3 536.3L350.3 612.6L392 544.6Z" fill="#ededed" stroke="#ededed"></path><path d="M502.7 528.3L435 458L387 513.3Z" fill="#d1d1d1" stroke="#d1d1d1"></path><path d="M387 513.3L435 458L342.3 475Z" fill="#dadada" stroke="#dadada"></path><path d="M289.7 544.3L350.3 612.6L353.3 536.3Z" fill="#d6d6d6" stroke="#d6d6d6"></path><path d="M289.7 544.3L300.3 613.9L350.3 612.6Z" fill="#f6f6f6" stroke="#f6f6f6"></path><path d="M289.7 544.3L276.7 600.6L300.3 613.9Z" fill="#dadada" stroke="#dadada"></path><path d="M276.7 600.6L289.7 612.9L300.3 613.9Z" fill="#ededed" stroke="#ededed"></path><path d="M300.3 613.9L360 631.9L350.3 612.6Z" fill="#dadada" stroke="#dadada"></path><path d="M350.3 612.6L360 631.9L392 544.6Z" fill="#dadada" stroke="#dadada"></path><path d="M502.7 528.3L500.7 479L435 458Z" fill="#f1f1f1" stroke="#f1f1f1"></path><path d="M346.3 725.1L360 631.9L300.3 613.9Z" fill="#d1d1d1" stroke="#d1d1d1"></path><path d="M435 458L373 376.7L342.3 475Z" fill="#dfdfdf" stroke="#dfdfdf"></path><path d="M342.3 475L238.7 437L289.7 544.3Z" fill="#d6d6d6" stroke="#d6d6d6"></path><path d="M289.7 353.4L238.7 437L342.3 475Z" fill="#f1f1f1" stroke="#f1f1f1"></path><path d="M289.7 544.3L205 629.9L276.7 600.6Z" fill="#ffffff" stroke="#ffffff"></path><path d="M373 376.7L358.3 361.7L342.3 475Z" fill="#ededed" stroke="#ededed"></path><path d="M360 631.9L470.7 595.6L392 544.6Z" fill="#d1d1d1" stroke="#d1d1d1"></path><path d="M502.7 528.3L387 513.3L392 544.6Z" fill="#ededed" stroke="#ededed"></path><path d="M435 458L458.7 363.7L373 376.7Z" fill="#dfdfdf" stroke="#dfdfdf"></path><path d="M373 376.7L372 312.4L358.3 361.7Z" fill="#f1f1f1" stroke="#f1f1f1"></path><path d="M470.7 595.6L502.7 528.3L392 544.6Z" fill="#d1d1d1" stroke="#d1d1d1"></path><path d="M358.3 361.7L289.7 353.4L342.3 475Z" fill="#f1f1f1" stroke="#f1f1f1"></path><path d="M470.7 595.6L515.3 561.6L502.7 528.3Z" fill="#f6f6f6" stroke="#f6f6f6"></path><path d="M502.7 528.3L565.3 478.3L500.7 479Z" fill="#ededed" stroke="#ededed"></path><path d="M500.7 479L458.7 363.7L435 458Z" fill="#d6d6d6" stroke="#d6d6d6"></path><path d="M358.3 361.7L344.3 295.4L289.7 353.4Z" fill="#f6f6f6" stroke="#f6f6f6"></path><path d="M508.3 635.9L495.7 608.9L470.7 595.6Z" fill="#f1f1f1" stroke="#f1f1f1"></path><path d="M470.7 595.6L495.7 608.9L515.3 561.6Z" fill="#dfdfdf" stroke="#dfdfdf"></path><path d="M289.7 353.4L250.7 362.7L238.7 437Z" fill="#d1d1d1" stroke="#d1d1d1"></path><path d="M192 401.7L175 482.3L238.7 437Z" fill="#e3e3e3" stroke="#e3e3e3"></path><path d="M238.7 437L175 482.3L289.7 544.3Z" fill="#e8e8e8" stroke="#e8e8e8"></path><path d="M458.7 363.7L372 312.4L373 376.7Z" fill="#d6d6d6" stroke="#d6d6d6"></path><path d="M289.7 353.4L207 320.4L250.7 362.7Z" fill="#e3e3e3" stroke="#e3e3e3"></path><path d="M250.7 362.7L192 401.7L238.7 437Z" fill="#dfdfdf" stroke="#dfdfdf"></path><path d="M160 605.6L205 629.9L289.7 544.3Z" fill="#d6d6d6" stroke="#d6d6d6"></path><path d="M276.7 600.6L205 629.9L289.7 612.9Z" fill="#f6f6f6" stroke="#f6f6f6"></path><path d="M260.7 724.1L346.3 725.1L300.3 613.9Z" fill="#ededed" stroke="#ededed"></path><path d="M159.3 411.7L161 478L175 482.3Z" fill="#f1f1f1" stroke="#f1f1f1"></path><path d="M175 482.3L160 605.6L289.7 544.3Z" fill="#e8e8e8" stroke="#e8e8e8"></path><path d="M517.3 678.1L508.3 635.9L472.7 731.1Z" fill="#e8e8e8" stroke="#e8e8e8"></path><path d="M472.7 731.1L508.3 635.9L470.7 595.6Z" fill="#d1d1d1" stroke="#d1d1d1"></path><path d="M495.7 608.9L508.3 635.9L515.3 561.6Z" fill="#fafafa" stroke="#fafafa"></path><path d="M353.3 250.1L344.3 295.4L372 312.4Z" fill="#e3e3e3" stroke="#e3e3e3"></path><path d="M372 312.4L344.3 295.4L358.3 361.7Z" fill="#fafafa" stroke="#fafafa"></path><path d="M105.7 355.7L159.3 411.7L192 401.7Z" fill="#dfdfdf" stroke="#dfdfdf"></path><path d="M515.3 561.6L565.3 478.3L502.7 528.3Z" fill="#fafafa" stroke="#fafafa"></path><path d="M500.7 479L553.3 414.7L458.7 363.7Z" fill="#d6d6d6" stroke="#d6d6d6"></path><path d="M600 493.3L565.3 478.3L515.3 561.6Z" fill="#e3e3e3" stroke="#e3e3e3"></path><path d="M565.3 478.3L553.3 414.7L500.7 479Z" fill="#f1f1f1" stroke="#f1f1f1"></path><path d="M458.7 363.7L435.7 287.4L372 312.4Z" fill="#dadada" stroke="#dadada"></path><path d="M207 320.4L192 401.7L250.7 362.7Z" fill="#e3e3e3" stroke="#e3e3e3"></path><path d="M192 401.7L159.3 411.7L175 482.3Z" fill="#ededed" stroke="#ededed"></path><path d="M120.3 539.6L160 605.6L175 482.3Z" fill="#f6f6f6" stroke="#f6f6f6"></path><path d="M124.3 519.3L175 482.3L161 478Z" fill="#d1d1d1" stroke="#d1d1d1"></path><path d="M260.7 724.1L289.7 612.9L207 698.1Z" fill="#e8e8e8" stroke="#e8e8e8"></path><path d="M260.7 724.1L300.3 613.9L289.7 612.9Z" fill="#dfdfdf" stroke="#dfdfdf"></path><path d="M565.3 478.3L569.3 428L553.3 414.7Z" fill="#d6d6d6" stroke="#d6d6d6"></path><path d="M477.7 290.1L458.7 363.7L547.3 327.4Z" fill="#ededed" stroke="#ededed"></path><path d="M477.7 290.1L435.7 287.4L458.7 363.7Z" fill="#dfdfdf" stroke="#dfdfdf"></path><path d="M121.3 429L124.3 519.3L161 478Z" fill="#e8e8e8" stroke="#e8e8e8"></path><path d="M294.7 222.1L207 320.4L289.7 353.4Z" fill="#ededed" stroke="#ededed"></path><path d="M436 741.1L470.7 595.6L360 631.9Z" fill="#ededed" stroke="#ededed"></path><path d="M600 589.6L600 493.3L515.3 561.6Z" fill="#ffffff" stroke="#ffffff"></path><path d="M124.3 519.3L120.3 539.6L175 482.3Z" fill="#e8e8e8" stroke="#e8e8e8"></path><path d="M207 698.1L289.7 612.9L205 629.9Z" fill="#d1d1d1" stroke="#d1d1d1"></path><path d="M600 589.6L515.3 561.6L508.3 635.9Z" fill="#e8e8e8" stroke="#e8e8e8"></path><path d="M565.3 478.3L600 427L569.3 428Z" fill="#fafafa" stroke="#fafafa"></path><path d="M123.3 711.1L205 629.9L160 605.6Z" fill="#d6d6d6" stroke="#d6d6d6"></path><path d="M123.3 711.1L207 698.1L205 629.9Z" fill="#fafafa" stroke="#fafafa"></path><path d="M547.3 327.4L458.7 363.7L553.3 414.7Z" fill="#d1d1d1" stroke="#d1d1d1"></path><path d="M105.7 355.7L121.3 429L159.3 411.7Z" fill="#ededed" stroke="#ededed"></path><path d="M159.3 411.7L121.3 429L161 478Z" fill="#ededed" stroke="#ededed"></path><path d="M124.3 519.3L36.7 496.3L120.3 539.6Z" fill="#f1f1f1" stroke="#f1f1f1"></path><path d="M346.3 725.1L436 741.1L360 631.9Z" fill="#d6d6d6" stroke="#d6d6d6"></path><path d="M362.3 766.4L436 741.1L346.3 725.1Z" fill="#f1f1f1" stroke="#f1f1f1"></path><path d="M188 777.4L282.7 745.4L260.7 724.1Z" fill="#dadada" stroke="#dadada"></path><path d="M260.7 724.1L282.7 745.4L346.3 725.1Z" fill="#ededed" stroke="#ededed"></path><path d="M435.7 287.4L353.3 250.1L372 312.4Z" fill="#ffffff" stroke="#ffffff"></path><path d="M294.7 222.1L193 266.1L207 320.4Z" fill="#e3e3e3" stroke="#e3e3e3"></path><path d="M419 232.1L353.3 250.1L435.7 287.4Z" fill="#fafafa" stroke="#fafafa"></path><path d="M436 741.1L472.7 731.1L470.7 595.6Z" fill="#ffffff" stroke="#ffffff"></path><path d="M600 493.3L600 427L565.3 478.3Z" fill="#dfdfdf" stroke="#dfdfdf"></path><path d="M569.3 428L600 371.7L553.3 414.7Z" fill="#d6d6d6" stroke="#d6d6d6"></path><path d="M600 635.9L508.3 635.9L517.3 678.1Z" fill="#d6d6d6" stroke="#d6d6d6"></path><path d="M600 635.9L600 589.6L508.3 635.9Z" fill="#e8e8e8" stroke="#e8e8e8"></path><path d="M600 371.7L547.3 327.4L553.3 414.7Z" fill="#ffffff" stroke="#ffffff"></path><path d="M282.7 745.4L362.3 766.4L346.3 725.1Z" fill="#e8e8e8" stroke="#e8e8e8"></path><path d="M436 741.1L500.7 755.4L472.7 731.1Z" fill="#fafafa" stroke="#fafafa"></path><path d="M600 709.1L600 635.9L517.3 678.1Z" fill="#d1d1d1" stroke="#d1d1d1"></path><path d="M600 427L600 371.7L569.3 428Z" fill="#d1d1d1" stroke="#d1d1d1"></path><path d="M477.7 290.1L419 232.1L435.7 287.4Z" fill="#e8e8e8" stroke="#e8e8e8"></path><path d="M427 187.9L419 232.1L503.3 200.9Z" fill="#e3e3e3" stroke="#e3e3e3"></path><path d="M294.7 222.1L289.7 353.4L344.3 295.4Z" fill="#ededed" stroke="#ededed"></path><path d="M207 320.4L105.7 355.7L192 401.7Z" fill="#ededed" stroke="#ededed"></path><path d="M294.7 222.1L344.3 295.4L353.3 250.1Z" fill="#ededed" stroke="#ededed"></path><path d="M318.3 159.9L294.7 222.1L353.3 250.1Z" fill="#f1f1f1" stroke="#f1f1f1"></path><path d="M404 798.4L500.7 755.4L436 741.1Z" fill="#e8e8e8" stroke="#e8e8e8"></path><path d="M472.7 731.1L500.7 755.4L517.3 678.1Z" fill="#e3e3e3" stroke="#e3e3e3"></path><path d="M140.3 300.4L105.7 355.7L207 320.4Z" fill="#d1d1d1" stroke="#d1d1d1"></path><path d="M121.3 429L57.7 436L124.3 519.3Z" fill="#dfdfdf" stroke="#dfdfdf"></path><path d="M600 371.7L600 338.4L547.3 327.4Z" fill="#d6d6d6" stroke="#d6d6d6"></path><path d="M547.3 327.4L565.3 271.1L477.7 290.1Z" fill="#d6d6d6" stroke="#d6d6d6"></path><path d="M193 266.1L140.3 300.4L207 320.4Z" fill="#dfdfdf" stroke="#dfdfdf"></path><path d="M342.3 816.7L404 798.4L362.3 766.4Z" fill="#fafafa" stroke="#fafafa"></path><path d="M362.3 766.4L404 798.4L436 741.1Z" fill="#d6d6d6" stroke="#d6d6d6"></path><path d="M105.7 355.7L57.7 436L121.3 429Z" fill="#ededed" stroke="#ededed"></path><path d="M58.7 613.6L96.3 672.9L160 605.6Z" fill="#d6d6d6" stroke="#d6d6d6"></path><path d="M58.7 613.6L160 605.6L120.3 539.6Z" fill="#f6f6f6" stroke="#f6f6f6"></path><path d="M207 698.1L188 777.4L260.7 724.1Z" fill="#d6d6d6" stroke="#d6d6d6"></path><path d="M282.7 745.4L342.3 816.7L362.3 766.4Z" fill="#ffffff" stroke="#ffffff"></path><path d="M96.3 672.9L123.3 711.1L160 605.6Z" fill="#dadada" stroke="#dadada"></path><path d="M265.7 819.7L342.3 816.7L282.7 745.4Z" fill="#dfdfdf" stroke="#dfdfdf"></path><path d="M600 283.1L565.3 271.1L547.3 327.4Z" fill="#ffffff" stroke="#ffffff"></path><path d="M36.7 496.3L58.7 613.6L120.3 539.6Z" fill="#e8e8e8" stroke="#e8e8e8"></path><path d="M500.7 755.4L600 709.1L517.3 678.1Z" fill="#d6d6d6" stroke="#d6d6d6"></path><path d="M57.7 436L36.7 496.3L124.3 519.3Z" fill="#d1d1d1" stroke="#d1d1d1"></path><path d="M129.3 740.4L188 777.4L207 698.1Z" fill="#f1f1f1" stroke="#f1f1f1"></path><path d="M503.3 200.9L419 232.1L477.7 290.1Z" fill="#f6f6f6" stroke="#f6f6f6"></path><path d="M419 232.1L427 187.9L353.3 250.1Z" fill="#f1f1f1" stroke="#f1f1f1"></path><path d="M47.7 738.1L129.3 740.4L123.3 711.1Z" fill="#fafafa" stroke="#fafafa"></path><path d="M123.3 711.1L129.3 740.4L207 698.1Z" fill="#d6d6d6" stroke="#d6d6d6"></path><path d="M47.7 738.1L123.3 711.1L96.3 672.9Z" fill="#d6d6d6" stroke="#d6d6d6"></path><path d="M188 777.4L265.7 819.7L282.7 745.4Z" fill="#f1f1f1" stroke="#f1f1f1"></path><path d="M600 338.4L600 283.1L547.3 327.4Z" fill="#dfdfdf" stroke="#dfdfdf"></path><path d="M565.3 271.1L503.3 200.9L477.7 290.1Z" fill="#ededed" stroke="#ededed"></path><path d="M140.3 300.4L84.7 306.4L105.7 355.7Z" fill="#ededed" stroke="#ededed"></path><path d="M105.7 355.7L0 378.7L57.7 436Z" fill="#f1f1f1" stroke="#f1f1f1"></path><path d="M0 465L0 534.3L36.7 496.3Z" fill="#d6d6d6" stroke="#d6d6d6"></path><path d="M115.3 226.1L84.7 306.4L140.3 300.4Z" fill="#f6f6f6" stroke="#f6f6f6"></path><path d="M115.3 226.1L140.3 300.4L193 266.1Z" fill="#f6f6f6" stroke="#f6f6f6"></path><path d="M600 216.9L503.3 200.9L565.3 271.1Z" fill="#e8e8e8" stroke="#e8e8e8"></path><path d="M58.7 613.6L52.7 669.9L96.3 672.9Z" fill="#f1f1f1" stroke="#f1f1f1"></path><path d="M0 615.9L52.7 669.9L58.7 613.6Z" fill="#dadada" stroke="#dadada"></path><path d="M427 187.9L318.3 159.9L353.3 250.1Z" fill="#dfdfdf" stroke="#dfdfdf"></path><path d="M294.7 222.1L248.7 155.9L193 266.1Z" fill="#d1d1d1" stroke="#d1d1d1"></path><path d="M359.3 105.6L318.3 159.9L427 187.9Z" fill="#dadada" stroke="#dadada"></path><path d="M310.3 900L397 848.7L342.3 816.7Z" fill="#ffffff" stroke="#ffffff"></path><path d="M342.3 816.7L397 848.7L404 798.4Z" fill="#ededed" stroke="#ededed"></path><path d="M404 798.4L475.7 872.7L500.7 755.4Z" fill="#fafafa" stroke="#fafafa"></path><path d="M500.7 755.4L556.3 802.4L600 709.1Z" fill="#f1f1f1" stroke="#f1f1f1"></path><path d="M0 465L36.7 496.3L57.7 436Z" fill="#f6f6f6" stroke="#f6f6f6"></path><path d="M36.7 496.3L0 534.3L58.7 613.6Z" fill="#ffffff" stroke="#ffffff"></path><path d="M0 378.7L0 465L57.7 436Z" fill="#d6d6d6" stroke="#d6d6d6"></path><path d="M524.3 857.7L556.3 802.4L500.7 755.4Z" fill="#e8e8e8" stroke="#e8e8e8"></path><path d="M530.3 151.6L468.7 162.9L503.3 200.9Z" fill="#ededed" stroke="#ededed"></path><path d="M503.3 200.9L468.7 162.9L427 187.9Z" fill="#e8e8e8" stroke="#e8e8e8"></path><path d="M297.7 93.3L248.7 155.9L318.3 159.9Z" fill="#fafafa" stroke="#fafafa"></path><path d="M318.3 159.9L248.7 155.9L294.7 222.1Z" fill="#f1f1f1" stroke="#f1f1f1"></path><path d="M164 174.9L115.3 226.1L193 266.1Z" fill="#d6d6d6" stroke="#d6d6d6"></path><path d="M84.7 306.4L0 378.7L105.7 355.7Z" fill="#f6f6f6" stroke="#f6f6f6"></path><path d="M188 777.4L188 831.7L265.7 819.7Z" fill="#d6d6d6" stroke="#d6d6d6"></path><path d="M265.7 819.7L310.3 900L342.3 816.7Z" fill="#d6d6d6" stroke="#d6d6d6"></path><path d="M99.7 821.7L188 831.7L188 777.4Z" fill="#f1f1f1" stroke="#f1f1f1"></path><path d="M99.7 821.7L188 777.4L129.3 740.4Z" fill="#e3e3e3" stroke="#e3e3e3"></path><path d="M0 534.3L0 615.6L58.7 613.6Z" fill="#fafafa" stroke="#fafafa"></path><path d="M52.7 669.9L47.7 738.1L96.3 672.9Z" fill="#d6d6d6" stroke="#d6d6d6"></path><path d="M0 615.6L0 615.9L58.7 613.6Z" fill="#dadada" stroke="#dadada"></path><path d="M600 283.1L600 216.9L565.3 271.1Z" fill="#f1f1f1" stroke="#f1f1f1"></path><path d="M0 318.4L0 378.7L84.7 306.4Z" fill="#d1d1d1" stroke="#d1d1d1"></path><path d="M600 801.7L600 793.4L556.3 802.4Z" fill="#dadada" stroke="#dadada"></path><path d="M556.3 802.4L600 793.4L600 709.1Z" fill="#d6d6d6" stroke="#d6d6d6"></path><path d="M248.7 155.9L164 174.9L193 266.1Z" fill="#f1f1f1" stroke="#f1f1f1"></path><path d="M600 900L600 801.7L556.3 802.4Z" fill="#dfdfdf" stroke="#dfdfdf"></path><path d="M0 707.1L47.7 738.1L52.7 669.9Z" fill="#f1f1f1" stroke="#f1f1f1"></path><path d="M397 848.7L475.7 872.7L404 798.4Z" fill="#f1f1f1" stroke="#f1f1f1"></path><path d="M417 900L475.7 872.7L397 848.7Z" fill="#fafafa" stroke="#fafafa"></path><path d="M164 174.9L107.3 206.9L115.3 226.1Z" fill="#ffffff" stroke="#ffffff"></path><path d="M115.3 226.1L82.7 229.1L84.7 306.4Z" fill="#f6f6f6" stroke="#f6f6f6"></path><path d="M107.3 206.9L82.7 229.1L115.3 226.1Z" fill="#fafafa" stroke="#fafafa"></path><path d="M475.7 872.7L524.3 857.7L500.7 755.4Z" fill="#d1d1d1" stroke="#d1d1d1"></path><path d="M600 216.9L530.3 151.6L503.3 200.9Z" fill="#d6d6d6" stroke="#d6d6d6"></path><path d="M468.7 162.9L439.7 116.6L427 187.9Z" fill="#fafafa" stroke="#fafafa"></path><path d="M530.3 151.6L439.7 116.6L468.7 162.9Z" fill="#ededed" stroke="#ededed"></path><path d="M264.7 900L310.3 900L265.7 819.7Z" fill="#e8e8e8" stroke="#e8e8e8"></path><path d="M414 102.6L359.3 105.6L427 187.9Z" fill="#dfdfdf" stroke="#dfdfdf"></path><path d="M175 104.6L143.3 152.6L164 174.9Z" fill="#d6d6d6" stroke="#d6d6d6"></path><path d="M310.3 900L417 900L397 848.7Z" fill="#f6f6f6" stroke="#f6f6f6"></path><path d="M475.7 872.7L502.7 900L524.3 857.7Z" fill="#f6f6f6" stroke="#f6f6f6"></path><path d="M47.7 738.1L65.7 781.4L129.3 740.4Z" fill="#dadada" stroke="#dadada"></path><path d="M188 831.7L264.7 900L265.7 819.7Z" fill="#fafafa" stroke="#fafafa"></path><path d="M0 275.1L0 318.4L84.7 306.4Z" fill="#ededed" stroke="#ededed"></path><path d="M396 36.3L414 102.6L493.7 40.3Z" fill="#e3e3e3" stroke="#e3e3e3"></path><path d="M439.7 116.6L414 102.6L427 187.9Z" fill="#d1d1d1" stroke="#d1d1d1"></path><path d="M191 900L264.7 900L188 831.7Z" fill="#e8e8e8" stroke="#e8e8e8"></path><path d="M65.7 781.4L99.7 821.7L129.3 740.4Z" fill="#e8e8e8" stroke="#e8e8e8"></path><path d="M47.7 738.1L0 769.4L65.7 781.4Z" fill="#ededed" stroke="#ededed"></path><path d="M89.7 900L117.3 859.7L99.7 821.7Z" fill="#fafafa" stroke="#fafafa"></path><path d="M0 615.9L0 707.1L52.7 669.9Z" fill="#e8e8e8" stroke="#e8e8e8"></path><path d="M175 104.6L164 174.9L248.7 155.9Z" fill="#d6d6d6" stroke="#d6d6d6"></path><path d="M164 174.9L143.3 152.6L107.3 206.9Z" fill="#ededed" stroke="#ededed"></path><path d="M107.3 206.9L84.7 160.9L82.7 229.1Z" fill="#f6f6f6" stroke="#f6f6f6"></path><path d="M82.7 229.1L0 275.1L84.7 306.4Z" fill="#d6d6d6" stroke="#d6d6d6"></path><path d="M359.3 105.6L297.7 93.3L318.3 159.9Z" fill="#dfdfdf" stroke="#dfdfdf"></path><path d="M295.3 64.3L297.7 93.3L359.3 105.6Z" fill="#dadada" stroke="#dadada"></path><path d="M297.7 93.3L256.7 94.6L248.7 155.9Z" fill="#dfdfdf" stroke="#dfdfdf"></path><path d="M417 900L502.7 900L475.7 872.7Z" fill="#ededed" stroke="#ededed"></path><path d="M524.3 857.7L600 900L556.3 802.4Z" fill="#d6d6d6" stroke="#d6d6d6"></path><path d="M0 170.9L0 275.1L82.7 229.1Z" fill="#e3e3e3" stroke="#e3e3e3"></path><path d="M89.7 900L99.7 821.7L0 843.7Z" fill="#dfdfdf" stroke="#dfdfdf"></path><path d="M99.7 821.7L117.3 859.7L188 831.7Z" fill="#ededed" stroke="#ededed"></path><path d="M158.3 900L191 900L188 831.7Z" fill="#e8e8e8" stroke="#e8e8e8"></path><path d="M502.7 900L526.3 900L524.3 857.7Z" fill="#f1f1f1" stroke="#f1f1f1"></path><path d="M143.3 152.6L84.7 160.9L107.3 206.9Z" fill="#d6d6d6" stroke="#d6d6d6"></path><path d="M75.7 118.6L84.7 160.9L143.3 152.6Z" fill="#f1f1f1" stroke="#f1f1f1"></path><path d="M256.7 94.6L175 104.6L248.7 155.9Z" fill="#e8e8e8" stroke="#e8e8e8"></path><path d="M117.3 859.7L158.3 900L188 831.7Z" fill="#d6d6d6" stroke="#d6d6d6"></path><path d="M0 707.1L0 769.4L47.7 738.1Z" fill="#dfdfdf" stroke="#dfdfdf"></path><path d="M117.3 859.7L89.7 900L158.3 900Z" fill="#d1d1d1" stroke="#d1d1d1"></path><path d="M297.7 93.3L295.3 64.3L256.7 94.6Z" fill="#ededed" stroke="#ededed"></path><path d="M256.7 94.6L227 38.3L175 104.6Z" fill="#ededed" stroke="#ededed"></path><path d="M396 36.3L295.3 64.3L359.3 105.6Z" fill="#e8e8e8" stroke="#e8e8e8"></path><path d="M600 95.6L552.3 95.3L530.3 151.6Z" fill="#dadada" stroke="#dadada"></path><path d="M530.3 151.6L552.3 95.3L439.7 116.6Z" fill="#fafafa" stroke="#fafafa"></path><path d="M414 102.6L396 36.3L359.3 105.6Z" fill="#ffffff" stroke="#ffffff"></path><path d="M526.3 900L600 900L524.3 857.7Z" fill="#d6d6d6" stroke="#d6d6d6"></path><path d="M493.7 40.3L414 102.6L439.7 116.6Z" fill="#d1d1d1" stroke="#d1d1d1"></path><path d="M600 216.9L600 95.6L530.3 151.6Z" fill="#dfdfdf" stroke="#dfdfdf"></path><path d="M552.3 95.3L493.7 40.3L439.7 116.6Z" fill="#dfdfdf" stroke="#dfdfdf"></path><path d="M175 104.6L75.7 118.6L143.3 152.6Z" fill="#f1f1f1" stroke="#f1f1f1"></path><path d="M84.7 160.9L0 170.9L82.7 229.1Z" fill="#e3e3e3" stroke="#e3e3e3"></path><path d="M171.3 40.3L75.7 118.6L175 104.6Z" fill="#fafafa" stroke="#fafafa"></path><path d="M227 38.3L256.7 94.6L295.3 64.3Z" fill="#f6f6f6" stroke="#f6f6f6"></path><path d="M0 843.7L99.7 821.7L65.7 781.4Z" fill="#d1d1d1" stroke="#d1d1d1"></path><path d="M287.7 0L227 38.3L295.3 64.3Z" fill="#e3e3e3" stroke="#e3e3e3"></path><path d="M564.3 0L493.7 40.3L552.3 95.3Z" fill="#f6f6f6" stroke="#f6f6f6"></path><path d="M75.7 118.6L0 170.9L84.7 160.9Z" fill="#ffffff" stroke="#ffffff"></path><path d="M0 769.4L0 843.7L65.7 781.4Z" fill="#d6d6d6" stroke="#d6d6d6"></path><path d="M227 38.3L171.3 40.3L175 104.6Z" fill="#ededed" stroke="#ededed"></path><path d="M75.7 118.6L0 102.6L0 170.9Z" fill="#f6f6f6" stroke="#f6f6f6"></path><path d="M377 0L363.3 0L396 36.3Z" fill="#e3e3e3" stroke="#e3e3e3"></path><path d="M396 36.3L363.3 0L295.3 64.3Z" fill="#fafafa" stroke="#fafafa"></path><path d="M227 38.3L233 0L171.3 40.3Z" fill="#d6d6d6" stroke="#d6d6d6"></path><path d="M503.7 0L377 0L396 36.3Z" fill="#ededed" stroke="#ededed"></path><path d="M171.3 40.3L58.7 94.3L75.7 118.6Z" fill="#f1f1f1" stroke="#f1f1f1"></path><path d="M363.3 0L287.7 0L295.3 64.3Z" fill="#dadada" stroke="#dadada"></path><path d="M600 95.6L600 55.3L552.3 95.3Z" fill="#e8e8e8" stroke="#e8e8e8"></path><path d="M493.7 40.3L503.7 0L396 36.3Z" fill="#dfdfdf" stroke="#dfdfdf"></path><path d="M287.7 0L233 0L227 38.3Z" fill="#dfdfdf" stroke="#dfdfdf"></path><path d="M0 48.3L0 102.6L58.7 94.3Z" fill="#d6d6d6" stroke="#d6d6d6"></path><path d="M564.3 0L503.7 0L493.7 40.3Z" fill="#dfdfdf" stroke="#dfdfdf"></path><path d="M0 843.7L0 900L89.7 900Z" fill="#dadada" stroke="#dadada"></path><path d="M101.7 0L58.7 94.3L171.3 40.3Z" fill="#ededed" stroke="#ededed"></path><path d="M58.7 94.3L0 102.6L75.7 118.6Z" fill="#e3e3e3" stroke="#e3e3e3"></path><path d="M600 55.3L564.3 0L552.3 95.3Z" fill="#d1d1d1" stroke="#d1d1d1"></path><path d="M233 0L145.3 0L171.3 40.3Z" fill="#f6f6f6" stroke="#f6f6f6"></path><path d="M600 55.3L600 0L564.3 0Z" fill="#f6f6f6" stroke="#f6f6f6"></path><path d="M145.3 0L101.7 0L171.3 40.3Z" fill="#e3e3e3" stroke="#e3e3e3"></path><path d="M101.7 0L0 48.3L58.7 94.3Z" fill="#d1d1d1" stroke="#d1d1d1"></path><path d="M101.7 0L0 0L0 48.3Z" fill="#fafafa" stroke="#fafafa"></path></g></svg>