<svg id="visual" viewBox="0 0 960 540" width="960" height="540" xmlns="http://www.w3.org/2000/svg" xmlns:xlink="http://www.w3.org/1999/xlink" version="1.1"><rect x="0" y="0" width="960" height="540" fill="#fff"></rect><path d="M0 276L26.7 265.5C53.3 255 106.7 234 160 228.5C213.3 223 266.7 233 320 260.3C373.3 287.7 426.7 332.3 480 346C533.3 359.7 586.7 342.3 640 357C693.3 371.7 746.7 418.3 800 416.3C853.3 414.3 906.7 363.7 933.3 338.3L960 313L960 0L933.3 0C906.7 0 853.3 0 800 0C746.7 0 693.3 0 640 0C586.7 0 533.3 0 480 0C426.7 0 373.3 0 320 0C266.7 0 213.3 0 160 0C106.7 0 53.3 0 26.7 0L0 0Z" fill="#d12828"></path><path d="M0 331L26.7 322.3C53.3 313.7 106.7 296.3 160 294.5C213.3 292.7 266.7 306.3 320 297.3C373.3 288.3 426.7 256.7 480 249.2C533.3 241.7 586.7 258.3 640 278.5C693.3 298.7 746.7 322.3 800 302.2C853.3 282 906.7 218 933.3 186L960 154L960 0L933.3 0C906.7 0 853.3 0 800 0C746.7 0 693.3 0 640 0C586.7 0 533.3 0 480 0C426.7 0 373.3 0 320 0C266.7 0 213.3 0 160 0C106.7 0 53.3 0 26.7 0L0 0Z" fill="#bf0340"></path><path d="M0 105L26.7 107.8C53.3 110.7 106.7 116.3 160 133C213.3 149.7 266.7 177.3 320 212.7C373.3 248 426.7 291 480 313C533.3 335 586.7 336 640 313.2C693.3 290.3 746.7 243.7 800 234.5C853.3 225.3 906.7 253.7 933.3 267.8L960 282L960 0L933.3 0C906.7 0 853.3 0 800 0C746.7 0 693.3 0 640 0C586.7 0 533.3 0 480 0C426.7 0 373.3 0 320 0C266.7 0 213.3 0 160 0C106.7 0 53.3 0 26.7 0L0 0Z" fill="#a50050"></path><path d="M0 76L26.7 75.7C53.3 75.3 106.7 74.7 160 99C213.3 123.3 266.7 172.7 320 191.2C373.3 209.7 426.7 197.3 480 190.8C533.3 184.3 586.7 183.7 640 181.3C693.3 179 746.7 175 800 188.5C853.3 202 906.7 233 933.3 248.5L960 264L960 0L933.3 0C906.7 0 853.3 0 800 0C746.7 0 693.3 0 640 0C586.7 0 533.3 0 480 0C426.7 0 373.3 0 320 0C266.7 0 213.3 0 160 0C106.7 0 53.3 0 26.7 0L0 0Z" fill="#85005a"></path><path d="M0 57L26.7 71C53.3 85 106.7 113 160 112.8C213.3 112.7 266.7 84.3 320 83.3C373.3 82.3 426.7 108.7 480 115.5C533.3 122.3 586.7 109.7 640 102.3C693.3 95 746.7 93 800 109.8C853.3 126.7 906.7 162.3 933.3 180.2L960 198L960 0L933.3 0C906.7 0 853.3 0 800 0C746.7 0 693.3 0 640 0C586.7 0 533.3 0 480 0C426.7 0 373.3 0 320 0C266.7 0 213.3 0 160 0C106.7 0 53.3 0 26.7 0L0 0Z" fill="#5a0063"></path><path d="M0 49L26.7 62.7C53.3 76.3 106.7 103.7 160 106.8C213.3 110 266.7 89 320 77.2C373.3 65.3 426.7 62.7 480 65.7C533.3 68.7 586.7 77.3 640 75C693.3 72.7 746.7 59.3 800 65C853.3 70.7 906.7 95.3 933.3 107.7L960 120L960 0L933.3 0C906.7 0 853.3 0 800 0C746.7 0 693.3 0 640 0C586.7 0 533.3 0 480 0C426.7 0 373.3 0 320 0C266.7 0 213.3 0 160 0C106.7 0 53.3 0 26.7 0L0 0Z" fill="#000069"></path></svg>