<svg id="visual" viewBox="0 0 900 900" width="900" height="900" xmlns="http://www.w3.org/2000/svg" xmlns:xlink="http://www.w3.org/1999/xlink" version="1.1"><rect x="0" y="0" width="900" height="900" fill="#ffffff"></rect><path d="M0 611L21.5 630.3C43 649.7 86 688.3 128.8 680.2C171.7 672 214.3 617 257.2 615.3C300 613.7 343 665.3 385.8 692.2C428.7 719 471.3 721 514.2 704.5C557 688 600 653 642.8 625.5C685.7 598 728.3 578 771.2 562C814 546 857 534 878.5 528L900 522L900 0L878.5 0C857 0 814 0 771.2 0C728.3 0 685.7 0 642.8 0C600 0 557 0 514.2 0C471.3 0 428.7 0 385.8 0C343 0 300 0 257.2 0C214.3 0 171.7 0 128.8 0C86 0 43 0 21.5 0L0 0Z" fill="#d12828"></path><path d="M0 506L21.5 505.5C43 505 86 504 128.8 495.5C171.7 487 214.3 471 257.2 485C300 499 343 543 385.8 574.2C428.7 605.3 471.3 623.7 514.2 621.3C557 619 600 596 642.8 593C685.7 590 728.3 607 771.2 608.5C814 610 857 596 878.5 589L900 582L900 0L878.5 0C857 0 814 0 771.2 0C728.3 0 685.7 0 642.8 0C600 0 557 0 514.2 0C471.3 0 428.7 0 385.8 0C343 0 300 0 257.2 0C214.3 0 171.7 0 128.8 0C86 0 43 0 21.5 0L0 0Z" fill="#c71238"></path><path d="M0 553L21.5 561.7C43 570.3 86 587.7 128.8 569.2C171.7 550.7 214.3 496.3 257.2 460.5C300 424.7 343 407.3 385.8 413.8C428.7 420.3 471.3 450.7 514.2 477.8C557 505 600 529 642.8 523.8C685.7 518.7 728.3 484.3 771.2 468.3C814 452.3 857 454.7 878.5 455.8L900 457L900 0L878.5 0C857 0 814 0 771.2 0C728.3 0 685.7 0 642.8 0C600 0 557 0 514.2 0C471.3 0 428.7 0 385.8 0C343 0 300 0 257.2 0C214.3 0 171.7 0 128.8 0C86 0 43 0 21.5 0L0 0Z" fill="#b90044"></path><path d="M0 373L21.5 368.5C43 364 86 355 128.8 368.7C171.7 382.3 214.3 418.7 257.2 415.7C300 412.7 343 370.3 385.8 376.7C428.7 383 471.3 438 514.2 450.7C557 463.3 600 433.7 642.8 416.2C685.7 398.7 728.3 393.3 771.2 387.8C814 382.3 857 376.7 878.5 373.8L900 371L900 0L878.5 0C857 0 814 0 771.2 0C728.3 0 685.7 0 642.8 0C600 0 557 0 514.2 0C471.3 0 428.7 0 385.8 0C343 0 300 0 257.2 0C214.3 0 171.7 0 128.8 0C86 0 43 0 21.5 0L0 0Z" fill="#a9004e"></path><path d="M0 405L21.5 397.7C43 390.3 86 375.7 128.8 354.2C171.7 332.7 214.3 304.3 257.2 301.7C300 299 343 322 385.8 343C428.7 364 471.3 383 514.2 381.3C557 379.7 600 357.3 642.8 357C685.7 356.7 728.3 378.3 771.2 373.7C814 369 857 338 878.5 322.5L900 307L900 0L878.5 0C857 0 814 0 771.2 0C728.3 0 685.7 0 642.8 0C600 0 557 0 514.2 0C471.3 0 428.7 0 385.8 0C343 0 300 0 257.2 0C214.3 0 171.7 0 128.8 0C86 0 43 0 21.5 0L0 0Z" fill="#960056"></path><path d="M0 301L21.5 310.3C43 319.7 86 338.3 128.8 326.7C171.7 315 214.3 273 257.2 250.5C300 228 343 225 385.8 226.2C428.7 227.3 471.3 232.7 514.2 254.2C557 275.7 600 313.3 642.8 322.8C685.7 332.3 728.3 313.7 771.2 303C814 292.3 857 289.7 878.5 288.3L900 287L900 0L878.5 0C857 0 814 0 771.2 0C728.3 0 685.7 0 642.8 0C600 0 557 0 514.2 0C471.3 0 428.7 0 385.8 0C343 0 300 0 257.2 0C214.3 0 171.7 0 128.8 0C86 0 43 0 21.5 0L0 0Z" fill="#81005c"></path><path d="M0 171L21.5 174.2C43 177.3 86 183.7 128.8 191.3C171.7 199 214.3 208 257.2 217C300 226 343 235 385.8 232.5C428.7 230 471.3 216 514.2 212.2C557 208.3 600 214.7 642.8 209.3C685.7 204 728.3 187 771.2 191.7C814 196.3 857 222.7 878.5 235.8L900 249L900 0L878.5 0C857 0 814 0 771.2 0C728.3 0 685.7 0 642.8 0C600 0 557 0 514.2 0C471.3 0 428.7 0 385.8 0C343 0 300 0 257.2 0C214.3 0 171.7 0 128.8 0C86 0 43 0 21.5 0L0 0Z" fill="#660061"></path><path d="M0 142L21.5 145.2C43 148.3 86 154.7 128.8 156.5C171.7 158.3 214.3 155.7 257.2 151.5C300 147.3 343 141.7 385.8 146.8C428.7 152 471.3 168 514.2 180C557 192 600 200 642.8 193.2C685.7 186.3 728.3 164.7 771.2 162.3C814 160 857 177 878.5 185.5L900 194L900 0L878.5 0C857 0 814 0 771.2 0C728.3 0 685.7 0 642.8 0C600 0 557 0 514.2 0C471.3 0 428.7 0 385.8 0C343 0 300 0 257.2 0C214.3 0 171.7 0 128.8 0C86 0 43 0 21.5 0L0 0Z" fill="#450066"></path><path d="M0 53L21.5 52.5C43 52 86 51 128.8 51.2C171.7 51.3 214.3 52.7 257.2 58.8C300 65 343 76 385.8 87.5C428.7 99 471.3 111 514.2 114.2C557 117.3 600 111.7 642.8 108.2C685.7 104.7 728.3 103.3 771.2 107.5C814 111.7 857 121.3 878.5 126.2L900 131L900 0L878.5 0C857 0 814 0 771.2 0C728.3 0 685.7 0 642.8 0C600 0 557 0 514.2 0C471.3 0 428.7 0 385.8 0C343 0 300 0 257.2 0C214.3 0 171.7 0 128.8 0C86 0 43 0 21.5 0L0 0Z" fill="#000069"></path></svg>