<svg id="visual" viewBox="0 0 960 540" width="960" height="540" xmlns="http://www.w3.org/2000/svg" xmlns:xlink="http://www.w3.org/1999/xlink" version="1.1"><rect x="0" y="0" width="960" height="540" fill="#fff"></rect><path d="M0 246L22.8 236.3C45.7 226.7 91.3 207.3 137 204.2C182.7 201 228.3 214 274 214.7C319.7 215.3 365.3 203.7 411.2 203.3C457 203 503 214 548.8 221.8C594.7 229.7 640.3 234.3 686 233.7C731.7 233 777.3 227 823 232.7C868.7 238.3 914.3 255.7 937.2 264.3L960 273L960 0L937.2 0C914.3 0 868.7 0 823 0C777.3 0 731.7 0 686 0C640.3 0 594.7 0 548.8 0C503 0 457 0 411.2 0C365.3 0 319.7 0 274 0C228.3 0 182.7 0 137 0C91.3 0 45.7 0 22.8 0L0 0Z" fill="#d12828"></path><path d="M0 225L22.8 214C45.7 203 91.3 181 137 184.7C182.7 188.3 228.3 217.7 274 223.7C319.7 229.7 365.3 212.3 411.2 212.7C457 213 503 231 548.8 229.2C594.7 227.3 640.3 205.7 686 194.2C731.7 182.7 777.3 181.3 823 191.5C868.7 201.7 914.3 223.3 937.2 234.2L960 245L960 0L937.2 0C914.3 0 868.7 0 823 0C777.3 0 731.7 0 686 0C640.3 0 594.7 0 548.8 0C503 0 457 0 411.2 0C365.3 0 319.7 0 274 0C228.3 0 182.7 0 137 0C91.3 0 45.7 0 22.8 0L0 0Z" fill="#b90044"></path><path d="M0 201L22.8 198.3C45.7 195.7 91.3 190.3 137 182.8C182.7 175.3 228.3 165.7 274 157.8C319.7 150 365.3 144 411.2 142.8C457 141.7 503 145.3 548.8 150.3C594.7 155.3 640.3 161.7 686 167.5C731.7 173.3 777.3 178.7 823 177.3C868.7 176 914.3 168 937.2 164L960 160L960 0L937.2 0C914.3 0 868.7 0 823 0C777.3 0 731.7 0 686 0C640.3 0 594.7 0 548.8 0C503 0 457 0 411.2 0C365.3 0 319.7 0 274 0C228.3 0 182.7 0 137 0C91.3 0 45.7 0 22.8 0L0 0Z" fill="#960056"></path><path d="M0 132L22.8 125.3C45.7 118.7 91.3 105.3 137 99.5C182.7 93.7 228.3 95.3 274 94.5C319.7 93.7 365.3 90.3 411.2 96.8C457 103.3 503 119.7 548.8 122.3C594.7 125 640.3 114 686 104C731.7 94 777.3 85 823 83.7C868.7 82.3 914.3 88.7 937.2 91.8L960 95L960 0L937.2 0C914.3 0 868.7 0 823 0C777.3 0 731.7 0 686 0C640.3 0 594.7 0 548.8 0C503 0 457 0 411.2 0C365.3 0 319.7 0 274 0C228.3 0 182.7 0 137 0C91.3 0 45.7 0 22.8 0L0 0Z" fill="#660061"></path><path d="M0 48L22.8 55C45.7 62 91.3 76 137 82.2C182.7 88.3 228.3 86.7 274 83.2C319.7 79.7 365.3 74.3 411.2 71.3C457 68.3 503 67.7 548.8 63.3C594.7 59 640.3 51 686 45.3C731.7 39.7 777.3 36.3 823 42.7C868.7 49 914.3 65 937.2 73L960 81L960 0L937.2 0C914.3 0 868.7 0 823 0C777.3 0 731.7 0 686 0C640.3 0 594.7 0 548.8 0C503 0 457 0 411.2 0C365.3 0 319.7 0 274 0C228.3 0 182.7 0 137 0C91.3 0 45.7 0 22.8 0L0 0Z" fill="#000069"></path></svg>