<svg id="visual" viewBox="0 0 900 300" width="900" height="300" xmlns="http://www.w3.org/2000/svg" xmlns:xlink="http://www.w3.org/1999/xlink" version="1.1"><rect x="0" y="0" width="900" height="300" fill="#fff"></rect><path d="M0 220L25 209.7C50 199.3 100 178.7 150 171.7C200 164.7 250 171.3 300 184C350 196.7 400 215.3 450 213.3C500 211.3 550 188.7 600 185.8C650 183 700 200 750 206.5C800 213 850 209 875 207L900 205L900 301L875 301C850 301 800 301 750 301C700 301 650 301 600 301C550 301 500 301 450 301C400 301 350 301 300 301C250 301 200 301 150 301C100 301 50 301 25 301L0 301Z" fill="#d12828"></path><path d="M0 226L25 224.5C50 223 100 220 150 218.5C200 217 250 217 300 218.3C350 219.7 400 222.3 450 219.7C500 217 550 209 600 208.7C650 208.3 700 215.7 750 218.3C800 221 850 219 875 218L900 217L900 301L875 301C850 301 800 301 750 301C700 301 650 301 600 301C550 301 500 301 450 301C400 301 350 301 300 301C250 301 200 301 150 301C100 301 50 301 25 301L0 301Z" fill="#c3093c"></path><path d="M0 198L25 199.3C50 200.7 100 203.3 150 202.2C200 201 250 196 300 203.7C350 211.3 400 231.7 450 242.2C500 252.7 550 253.3 600 253.3C650 253.3 700 252.7 750 252.3C800 252 850 252 875 252L900 252L900 301L875 301C850 301 800 301 750 301C700 301 650 301 600 301C550 301 500 301 450 301C400 301 350 301 300 301C250 301 200 301 150 301C100 301 50 301 25 301L0 301Z" fill="#af004b"></path><path d="M0 246L25 246.2C50 246.3 100 246.7 150 243.5C200 240.3 250 233.7 300 227.2C350 220.7 400 214.3 450 220.2C500 226 550 244 600 251C650 258 700 254 750 245.2C800 236.3 850 222.7 875 215.8L900 209L900 301L875 301C850 301 800 301 750 301C700 301 650 301 600 301C550 301 500 301 450 301C400 301 350 301 300 301C250 301 200 301 150 301C100 301 50 301 25 301L0 301Z" fill="#960056"></path><path d="M0 262L25 258.7C50 255.3 100 248.7 150 246.7C200 244.7 250 247.3 300 248.5C350 249.7 400 249.3 450 246.7C500 244 550 239 600 240.3C650 241.7 700 249.3 750 248.8C800 248.3 850 239.7 875 235.3L900 231L900 301L875 301C850 301 800 301 750 301C700 301 650 301 600 301C550 301 500 301 450 301C400 301 350 301 300 301C250 301 200 301 150 301C100 301 50 301 25 301L0 301Z" fill="#79005e"></path><path d="M0 251L25 249.8C50 248.7 100 246.3 150 247C200 247.7 250 251.3 300 257.3C350 263.3 400 271.7 450 276.7C500 281.7 550 283.3 600 282.2C650 281 700 277 750 275.8C800 274.7 850 276.3 875 277.2L900 278L900 301L875 301C850 301 800 301 750 301C700 301 650 301 600 301C550 301 500 301 450 301C400 301 350 301 300 301C250 301 200 301 150 301C100 301 50 301 25 301L0 301Z" fill="#510065"></path><path d="M0 283L25 281C50 279 100 275 150 275.5C200 276 250 281 300 284.8C350 288.7 400 291.3 450 291.8C500 292.3 550 290.7 600 286.8C650 283 700 277 750 275.3C800 273.7 850 276.3 875 277.7L900 279L900 301L875 301C850 301 800 301 750 301C700 301 650 301 600 301C550 301 500 301 450 301C400 301 350 301 300 301C250 301 200 301 150 301C100 301 50 301 25 301L0 301Z" fill="#000069"></path></svg>