<svg id="visual" viewBox="0 0 960 540" width="960" height="540" xmlns="http://www.w3.org/2000/svg" xmlns:xlink="http://www.w3.org/1999/xlink" version="1.1"><rect x="0" y="0" width="960" height="540" fill="#fff"></rect><path d="M0 284L26.7 269.3C53.3 254.7 106.7 225.3 160 220.5C213.3 215.7 266.7 235.3 320 255.3C373.3 275.3 426.7 295.7 480 304.8C533.3 314 586.7 312 640 281.3C693.3 250.7 746.7 191.3 800 166.8C853.3 142.3 906.7 152.7 933.3 157.8L960 163L960 0L933.3 0C906.7 0 853.3 0 800 0C746.7 0 693.3 0 640 0C586.7 0 533.3 0 480 0C426.7 0 373.3 0 320 0C266.7 0 213.3 0 160 0C106.7 0 53.3 0 26.7 0L0 0Z" fill="#000069" stroke-linecap="round" stroke-linejoin="miter"></path></svg>